<svg width="25" height="24" viewBox="0 0 25 24" fill="none" xmlns="http://www.w3.org/2000/svg">
<g filter="url(#filter0_d_1106_1624)">
<path d="M20.0189 4.88109L19.283 4.14515C19.075 3.93716 18.691 3.96917 18.451 4.25711L15.8908 6.80108C14.7388 6.30514 13.4749 6.06514 12.1468 6.06514C8.1947 6.08107 4.77092 8.38504 3.1228 11.6973C3.02677 11.9052 3.02677 12.1612 3.1228 12.3372C3.89073 13.9052 5.04281 15.2012 6.48281 16.1772L4.38682 18.3051C4.14682 18.5451 4.11481 18.9291 4.27485 19.1371L5.0108 19.8731C5.21879 20.081 5.60277 20.049 5.84277 19.7611L19.8907 5.71321C20.1947 5.47334 20.2267 5.08938 20.0187 4.88137L20.0189 4.88109ZM12.9948 9.71298C12.7228 9.64896 12.4349 9.56901 12.1628 9.56901C10.8028 9.56901 9.71489 10.657 9.71489 12.0169C9.71489 12.2889 9.77891 12.5769 9.85887 12.8489L8.78675 13.9049C8.4668 13.345 8.29081 12.7209 8.29081 12.017C8.29081 9.88899 10.0028 8.17697 12.1308 8.17697C12.8349 8.17697 13.4588 8.35295 14.0188 8.67291L12.9948 9.71298Z" fill="#666666" fill-opacity="0.8"/>
<path d="M19.3545 4.92427L19.6509 5.22066C19.6487 5.23647 19.6361 5.2772 19.581 5.32067L19.5579 5.33887L19.5371 5.35965L5.48922 19.4075L5.4732 19.4236L5.45869 19.441C5.41737 19.4905 5.3761 19.5041 5.35599 19.5065C5.35441 19.5067 5.353 19.5068 5.35177 19.5069L4.6769 18.8321C4.67576 18.8224 4.67535 18.8088 4.67735 18.7919C4.68323 18.7422 4.7061 18.693 4.74037 18.6587L4.74038 18.6587L4.74304 18.656L6.83903 16.528L7.26044 16.1002L6.76332 15.7633C5.39225 14.834 4.2998 13.6036 3.57184 12.1172L3.56699 12.1073L3.56171 12.0977C3.56191 12.098 3.55893 12.0925 3.55597 12.0797C3.55304 12.067 3.55078 12.0499 3.55078 12.0292C3.55078 11.9881 3.55964 11.9461 3.57456 11.9117C5.14379 8.76567 8.39697 6.58065 12.1478 6.56514C13.4151 6.56526 14.6104 6.79422 15.6931 7.26033L16.0035 7.39396L16.2433 7.15575L18.8034 4.61179L18.8201 4.59526L18.8351 4.57724C18.8764 4.52766 18.9177 4.51407 18.9378 4.51169C18.9394 4.5115 18.9408 4.51137 18.942 4.51129L19.3547 4.92401L19.3545 4.92427ZM18.9495 4.51142C18.9495 4.51143 18.9492 4.5114 18.9487 4.51127L18.9495 4.51142ZM12.8803 10.1997L13.1539 10.2641L13.3511 10.0638L14.3751 9.0237L14.8307 8.56096L14.2669 8.23879C13.6324 7.87628 12.9231 7.67697 12.1308 7.67697C9.72669 7.67697 7.79081 9.61285 7.79081 12.017C7.79081 12.8091 7.99012 13.5186 8.35262 14.153L8.67487 14.717L9.13762 14.2612L10.2097 13.2051L10.423 12.9951L10.3386 12.7079C10.2633 12.4517 10.2149 12.2177 10.2149 12.0169C10.2149 10.9332 11.0789 10.069 12.1628 10.069C12.3335 10.069 12.5152 10.1125 12.7586 10.1707C12.7975 10.18 12.838 10.1897 12.8803 10.1997Z" stroke="#E6D5D5" stroke-opacity="0.1"/>
<path d="M21.1714 11.6974C20.6114 10.5774 19.8753 9.56945 18.9634 8.75342L15.9874 11.6974V12.0174C15.9874 14.1454 14.2754 15.8574 12.1474 15.8574H11.8274L9.93945 17.7454C10.6435 17.8893 11.3795 17.9854 12.0995 17.9854C16.0516 17.9854 19.4754 15.6814 21.1235 12.3532C21.2675 12.1292 21.2675 11.9053 21.1714 11.6973L21.1714 11.6974Z" fill="#666666" fill-opacity="0.8"/>
<path d="M20.7209 11.9145C20.7368 11.9514 20.7391 11.9761 20.7382 11.992C20.7373 12.0077 20.7324 12.0369 20.7028 12.083L20.6878 12.1064L20.6754 12.1314C19.1074 15.2977 15.8521 17.4854 12.0995 17.4854C11.7311 17.4854 11.3557 17.4586 10.9802 17.4117L12.0345 16.3574H12.1474C14.5515 16.3574 16.4874 14.4215 16.4874 12.0174V11.9061L18.971 9.44921C19.6743 10.1545 20.2586 10.9913 20.7209 11.9145Z" stroke="#E6D5D5" stroke-opacity="0.1"/>
</g>
<defs>
<filter id="filter0_d_1106_1624" x="-3.86328" y="0" width="32" height="32" filterUnits="userSpaceOnUse" color-interpolation-filters="sRGB">
<feFlood flood-opacity="0" result="BackgroundImageFix"/>
<feColorMatrix in="SourceAlpha" type="matrix" values="0 0 0 0 0 0 0 0 0 0 0 0 0 0 0 0 0 0 127 0" result="hardAlpha"/>
<feOffset dy="4"/>
<feGaussianBlur stdDeviation="2"/>
<feComposite in2="hardAlpha" operator="out"/>
<feColorMatrix type="matrix" values="0 0 0 0 0 0 0 0 0 0 0 0 0 0 0 0 0 0 0.25 0"/>
<feBlend mode="normal" in2="BackgroundImageFix" result="effect1_dropShadow_1106_1624"/>
<feBlend mode="normal" in="SourceGraphic" in2="effect1_dropShadow_1106_1624" result="shape"/>
</filter>
</defs>
</svg>
